<mxfile host="app.diagrams.net" agent="Mozilla/5.0 (Windows NT 10.0; Win64; x64) AppleWebKit/537.36 (KHTML, like Gecko) Chrome/131.0.0.0 Safari/537.36" version="26.0.5">
  <diagram name="Page-1" id="ncE1ms7s9Javan94I2pB">
    <mxGraphModel dx="555" dy="833" grid="1" gridSize="10" guides="1" tooltips="1" connect="1" arrows="1" fold="1" page="1" pageScale="1" pageWidth="850" pageHeight="1100" math="0" shadow="0">
      <root>
        <mxCell id="0" />
        <mxCell id="1" parent="0" />
        <mxCell id="TQUPZBiypzR4ups0Wuu2-15" style="edgeStyle=orthogonalEdgeStyle;rounded=0;orthogonalLoop=1;jettySize=auto;html=1;exitX=0.5;exitY=1;exitDx=0;exitDy=0;entryX=0;entryY=0.5;entryDx=0;entryDy=0;curved=1;" edge="1" parent="1" source="TQUPZBiypzR4ups0Wuu2-1" target="TQUPZBiypzR4ups0Wuu2-7">
          <mxGeometry relative="1" as="geometry" />
        </mxCell>
        <mxCell id="TQUPZBiypzR4ups0Wuu2-1" value="2 Digital Image Fundamentals" style="whiteSpace=wrap;strokeWidth=2;" vertex="1" parent="1">
          <mxGeometry x="980" y="308" width="260" height="78" as="geometry" />
        </mxCell>
        <mxCell id="TQUPZBiypzR4ups0Wuu2-2" value="Elements of Visual Perception" style="whiteSpace=wrap;strokeWidth=2;" vertex="1" parent="1">
          <mxGeometry x="1300" y="110" width="260" height="78" as="geometry" />
        </mxCell>
        <mxCell id="TQUPZBiypzR4ups0Wuu2-3" value="Light and the Electromagnetic Spectrum" style="whiteSpace=wrap;strokeWidth=2;" vertex="1" parent="1">
          <mxGeometry x="1270" y="230" width="260" height="78" as="geometry" />
        </mxCell>
        <mxCell id="TQUPZBiypzR4ups0Wuu2-4" value="Image Sensing and Acquisition" style="whiteSpace=wrap;strokeWidth=2;" vertex="1" parent="1">
          <mxGeometry x="1290" y="340" width="260" height="78" as="geometry" />
        </mxCell>
        <mxCell id="TQUPZBiypzR4ups0Wuu2-5" value="Image Sampling and Quantization" style="whiteSpace=wrap;strokeWidth=2;" vertex="1" parent="1">
          <mxGeometry x="1310" y="470" width="260" height="78" as="geometry" />
        </mxCell>
        <mxCell id="TQUPZBiypzR4ups0Wuu2-6" value="Some Basic Relationships Between Pixels" style="whiteSpace=wrap;strokeWidth=2;" vertex="1" parent="1">
          <mxGeometry x="1310" y="580" width="260" height="78" as="geometry" />
        </mxCell>
        <mxCell id="TQUPZBiypzR4ups0Wuu2-7" value="Introduction to the Basic Mathematical Tools Used in Digital Image Processing" style="whiteSpace=wrap;strokeWidth=2;" vertex="1" parent="1">
          <mxGeometry x="1310" y="680" width="260" height="102" as="geometry" />
        </mxCell>
        <mxCell id="TQUPZBiypzR4ups0Wuu2-8" value="" style="curved=1;startArrow=none;endArrow=block;exitX=0;exitY=0.64;entryX=0.5;entryY=0;rounded=0;" edge="1" parent="1" source="TQUPZBiypzR4ups0Wuu2-1" target="TQUPZBiypzR4ups0Wuu2-2">
          <mxGeometry relative="1" as="geometry">
            <Array as="points">
              <mxPoint x="830" y="70" />
            </Array>
          </mxGeometry>
        </mxCell>
        <mxCell id="TQUPZBiypzR4ups0Wuu2-9" value="" style="curved=1;startArrow=none;endArrow=block;exitX=0;exitY=0.73;entryX=0.5;entryY=0;rounded=0;" edge="1" parent="1" source="TQUPZBiypzR4ups0Wuu2-1" target="TQUPZBiypzR4ups0Wuu2-3">
          <mxGeometry relative="1" as="geometry">
            <Array as="points">
              <mxPoint x="900" y="160" />
            </Array>
          </mxGeometry>
        </mxCell>
        <mxCell id="TQUPZBiypzR4ups0Wuu2-10" value="" style="curved=1;startArrow=none;endArrow=block;exitX=0.14;exitY=1;entryX=0.5;entryY=0;rounded=0;" edge="1" parent="1" source="TQUPZBiypzR4ups0Wuu2-1" target="TQUPZBiypzR4ups0Wuu2-4">
          <mxGeometry relative="1" as="geometry">
            <Array as="points">
              <mxPoint x="1100" y="520" />
            </Array>
          </mxGeometry>
        </mxCell>
        <mxCell id="TQUPZBiypzR4ups0Wuu2-11" value="" style="curved=1;startArrow=none;endArrow=block;exitX=0.86;exitY=1;entryX=0.5;entryY=0;rounded=0;" edge="1" parent="1" source="TQUPZBiypzR4ups0Wuu2-1" target="TQUPZBiypzR4ups0Wuu2-5">
          <mxGeometry relative="1" as="geometry">
            <Array as="points">
              <mxPoint x="1190" y="520" />
            </Array>
          </mxGeometry>
        </mxCell>
        <mxCell id="TQUPZBiypzR4ups0Wuu2-12" value="" style="curved=1;startArrow=none;endArrow=block;exitX=1;exitY=0.73;entryX=0.5;entryY=0;rounded=0;edgeStyle=orthogonalEdgeStyle;" edge="1" parent="1" source="TQUPZBiypzR4ups0Wuu2-1" target="TQUPZBiypzR4ups0Wuu2-6">
          <mxGeometry relative="1" as="geometry" />
        </mxCell>
      </root>
    </mxGraphModel>
  </diagram>
</mxfile>
